<svg id="visual" viewBox="0 0 675 900" width="675" height="900" xmlns="http://www.w3.org/2000/svg" xmlns:xlink="http://www.w3.org/1999/xlink" version="1.1">
    <rect x="0" y="0" width="675" height="900" fill="#C62368"></rect>
    <path
        d="M0 694L18.8 695C37.7 696 75.3 698 112.8 702.2C150.3 706.3 187.7 712.7 225.2 712.8C262.7 713 300.3 707 337.8 706.8C375.3 706.7 412.7 712.3 450.2 710.7C487.7 709 525.3 700 562.8 698.2C600.3 696.3 637.7 701.7 656.3 704.3L675 707L675 901L656.3 901C637.7 901 600.3 901 562.8 901C525.3 901 487.7 901 450.2 901C412.7 901 375.3 901 337.8 901C300.3 901 262.7 901 225.2 901C187.7 901 150.3 901 112.8 901C75.3 901 37.7 901 18.8 901L0 901Z"
        fill="#c62368"
    ></path>
    <path
        d="M0 754L18.8 757.5C37.7 761 75.3 768 112.8 766.5C150.3 765 187.7 755 225.2 751.2C262.7 747.3 300.3 749.7 337.8 755.2C375.3 760.7 412.7 769.3 450.2 768.7C487.7 768 525.3 758 562.8 756.3C600.3 754.7 637.7 761.3 656.3 764.7L675 768L675 901L656.3 901C637.7 901 600.3 901 562.8 901C525.3 901 487.7 901 450.2 901C412.7 901 375.3 901 337.8 901C300.3 901 262.7 901 225.2 901C187.7 901 150.3 901 112.8 901C75.3 901 37.7 901 18.8 901L0 901Z"
        fill="#da3f67"
    ></path>
    <path
        d="M0 787L18.8 792.7C37.7 798.3 75.3 809.7 112.8 810.7C150.3 811.7 187.7 802.3 225.2 798.5C262.7 794.7 300.3 796.3 337.8 799.5C375.3 802.7 412.7 807.3 450.2 808.7C487.7 810 525.3 808 562.8 804.2C600.3 800.3 637.7 794.7 656.3 791.8L675 789L675 901L656.3 901C637.7 901 600.3 901 562.8 901C525.3 901 487.7 901 450.2 901C412.7 901 375.3 901 337.8 901C300.3 901 262.7 901 225.2 901C187.7 901 150.3 901 112.8 901C75.3 901 37.7 901 18.8 901L0 901Z"
        fill="#eb5967"
    ></path>
    <path
        d="M0 830L18.8 830.8C37.7 831.7 75.3 833.3 112.8 835.8C150.3 838.3 187.7 841.7 225.2 841.3C262.7 841 300.3 837 337.8 838C375.3 839 412.7 845 450.2 848.3C487.7 851.7 525.3 852.3 562.8 851.8C600.3 851.3 637.7 849.7 656.3 848.8L675 848L675 901L656.3 901C637.7 901 600.3 901 562.8 901C525.3 901 487.7 901 450.2 901C412.7 901 375.3 901 337.8 901C300.3 901 262.7 901 225.2 901C187.7 901 150.3 901 112.8 901C75.3 901 37.7 901 18.8 901L0 901Z"
        fill="#fff"
    ></path>
</svg>
